<svg xmlns="http://www.w3.org/2000/svg" width="24" height="24" viewBox="0 0 24 24">
    <defs>
        <style>
            .cls-2{fill:#fff}
        </style>
    </defs>
    <g id="d_ic_sns_2" transform="translate(-7340 693) translate(7340 -693)">
        <path id="area" fill="none" d="M0 0H24V24H0z"/>
        <g id="그룹_160">
            <path id="패스_132" d="M17.376 0H6.622A6.631 6.631 0 0 0 0 6.622v10.755A6.631 6.631 0 0 0 6.622 24h10.754A6.631 6.631 0 0 0 24 17.377V6.622A6.631 6.631 0 0 0 17.376 0zm4.494 17.377a4.5 4.5 0 0 1-4.492 4.492H6.622a4.5 4.5 0 0 1-4.492-4.492V6.622A4.5 4.5 0 0 1 6.622 2.13h10.754a4.5 4.5 0 0 1 4.494 4.492v10.755z" class="cls-2"/>
            <path id="패스_133" d="M10.061 3.877a6.184 6.184 0 1 0 6.184 6.184 6.192 6.192 0 0 0-6.184-6.184zm0 10.239a4.054 4.054 0 1 1 4.054-4.054 4.059 4.059 0 0 1-4.054 4.054z" class="cls-2" transform="translate(1.938 1.938)"/>
            <path id="패스_134" d="M12.816 2.674a1.559 1.559 0 1 0 1.1.456 1.57 1.57 0 0 0-1.1-.456z" class="cls-2" transform="translate(5.627 1.337)"/>
        </g>
    </g>
</svg>
