<svg xmlns="http://www.w3.org/2000/svg" width="24.001" height="24" viewBox="0 0 24.001 24">
    <g>
        <path fill="none" d="M0 0H24V24H0z" transform="translate(-7399.999 693) translate(7400 -693)"/>
        <path fill="#fff" d="M22.972 3.862a3.271 3.271 0 0 0-2.3-2.3C18.625 1 11.751 1 11.751 1s-6.872 0-8.917.538a3.344 3.344 0 0 0-2.3 2.326 34.47 34.47 0 0 0-.538 6.284 34.365 34.365 0 0 0 .538 6.286 3.273 3.273 0 0 0 2.3 2.3c2.067.56 8.917.56 8.917.56s6.873 0 8.918-.538a3.277 3.277 0 0 0 2.3-2.3 34.56 34.56 0 0 0 .537-6.284 32.679 32.679 0 0 0-.534-6.31zm-13.259 9.55V6.88l5.67 3.266z" transform="translate(-7399.999 693) translate(7400.006 -691.143)"/>
    </g>
</svg>
